<svg id="Layer_2" data-name="Layer 2" xmlns="http://www.w3.org/2000/svg" viewBox="0 0 156.8 132.82"><defs><style>.cls-1{fill:#212121;}.cls-2{fill:#a50f0f;}</style></defs><title>TrendyAutoParts</title><path class="cls-1" d="M215.8-113.29c5.9-4,4.1-8.7,4.1-8.7-1.7,5-5.9,4.8-5.9,4.8,8.4-10.4,2.2-15.8,2.2-15.8-.3,8.1-4.6,11.1-4.6,11.1,3.3-17.7-6.8-21-6.8-21,4.6,19.7-8.5,22.5-8.5,22.5C185.4-131,158.6-144,123.9-129s-37.1,56.5-37.1,56.5c-19.4,1.6-21.3-12.4-21.3-12.4-5,15.1,10,20.4,10,20.4a19.85,19.85,0,0,1-12.1-4.6c.8,8,13.8,10.3,13.8,10.3-2.8,2.1-7.9,1.2-7.9,1.2,1.1,3.4,9.3,2.6,9.3,2.6l-3.7,3.2H89.4c20,54.7,74.8,39.9,74.8,39.9l-2.7-60.6c27.2-10.7,58.7-40.4,58.7-40.4ZM97.4-52.39s40.1-7.1,56-16.5l3.3,51.1S114.6-9.49,97.4-52.39Zm-2.2-8.9s-10-39,32.7-62.4c39.1-18.1,66.3,8.6,69.8,14.1C197.6-109.59,145.2-68,95.2-61.29Z" transform="translate(-63.4 142.89)"/><path class="cls-2" d="M188.5-106l5.7-4.4s-26.8-27.9-62.3-12.7c-36.4,15.7-36,51.6-34.5,58.8l6.8-1.3s-3.3-36.5,29-50.5S188.5-106,188.5-106Z" transform="translate(-63.4 142.89)"/><path class="cls-2" d="M145.9-61.29l5.6-3,2.5,44.7s-35.5,4.8-53.4-31l7.7-1.6s11.1,25.3,39,25.9Z" transform="translate(-63.4 142.89)"/></svg>